<?xml version="1.0" standalone="no"?><!DOCTYPE svg PUBLIC "-//W3C//DTD SVG 1.1//EN" "http://www.w3.org/Graphics/SVG/1.1/DTD/svg11.dtd"><svg t="1557313232783" class="icon" style="" viewBox="0 0 1024 1024" version="1.1" xmlns="http://www.w3.org/2000/svg" p-id="18009" xmlns:xlink="http://www.w3.org/1999/xlink" width="200" height="200"><defs><style type="text/css"></style></defs><path d="M512 883.17c17.633 0 31.929-14.296 31.929-31.929 0-17.617-14.296-31.929-31.929-31.929-17.617 0-31.929 14.312-31.929 31.929C480.071 868.874 494.383 883.17 512 883.17z" p-id="18010"></path><path d="M823.109 71.096c-4.07-4.069-9.387-6.096-14.719-6.096L215.624 65c-5.332 0-10.648 2.027-14.717 6.096-4.069 4.069-6.111 9.401-6.111 14.717l0 623.308 0 41.642 0 187.409c0 5.332 2.042 10.663 6.111 14.717 4.069 4.069 9.385 6.111 14.717 6.111l592.767 0c5.332 0 10.648-2.042 14.719-6.111 4.068-4.054 6.096-9.385 6.096-14.717L829.206 750.763l0-41.642L829.206 85.813C829.205 80.497 827.178 75.165 823.109 71.096zM797.275 96.929l0 63.857L226.724 160.786 226.724 96.929 797.275 96.929zM797.275 927.071 226.724 927.071 226.724 767.429l570.551 0L797.275 927.071zM226.724 735.5 226.724 192.714l570.551 0L797.275 735.5 226.724 735.5z" p-id="18011"></path></svg>